<?xml version="1.0" standalone="no"?><svg xmlns="http://www.w3.org/2000/svg" viewBox="0 0 1440 320"><path fill="#fff691" fill-opacity="1" d="M0,128L24,138.7C48,149,96,171,144,192C192,213,240,235,288,213.3C336,192,384,128,432,112C480,96,528,128,576,160C624,192,672,224,720,218.7C768,213,816,171,864,154.7C912,139,960,149,1008,170.7C1056,192,1104,224,1152,218.7C1200,213,1248,171,1296,149.3C1344,128,1392,128,1416,128L1440,128L1440,320L1416,320C1392,320,1344,320,1296,320C1248,320,1200,320,1152,320C1104,320,1056,320,1008,320C960,320,912,320,864,320C816,320,768,320,720,320C672,320,624,320,576,320C528,320,480,320,432,320C384,320,336,320,288,320C240,320,192,320,144,320C96,320,48,320,24,320L0,320Z"></path></svg>