<svg id="Layer_1" data-name="Layer 1" xmlns="http://www.w3.org/2000/svg" viewBox="0 0 112.61 109.83"><defs><style>.cls-1{fill:#191717;fill-rule:evenodd;}</style></defs><title>github_logo</title><path class="cls-1" d="M60.12,5a56.32,56.32,0,0,0-17.8,109.74c2.82.51,3.85-1.23,3.85-2.72s-.05-4.88-.08-9.57c-15.66,3.4-19-7.55-19-7.55-2.56-6.51-6.25-8.24-6.25-8.24-5.11-3.49.39-3.42.39-3.42,5.65.4,8.62,5.8,8.62,5.8,5,8.61,13.18,6.12,16.39,4.68a12.08,12.08,0,0,1,3.57-7.53C37.34,84.81,24.2,80,24.2,58.4A21.75,21.75,0,0,1,30,43.3c-.58-1.43-2.51-7.15.55-14.9,0,0,4.73-1.52,15.49,5.77a53.23,53.23,0,0,1,28.19,0C85,26.88,89.69,28.4,89.69,28.4c3.07,7.75,1.14,13.47.56,14.9A21.7,21.7,0,0,1,96,58.4C96,80,82.87,84.79,70.33,86.19c2,1.74,3.82,5.17,3.82,10.43,0,7.52-.07,13.6-.07,15.44,0,1.51,1,3.26,3.87,2.71A56.31,56.31,0,0,0,60.12,5Z" transform="translate(-3.82 -5.04)"/></svg>