<?xml version="1.0" encoding="utf-8"?>
<!-- Generator: Adobe Illustrator 24.0.3, SVG Export Plug-In . SVG Version: 6.00 Build 0)  -->
<svg version="1.1" id="Layer_1" xmlns="http://www.w3.org/2000/svg" xmlns:xlink="http://www.w3.org/1999/xlink" x="0px" y="0px"
	 viewBox="0 0 1440 320" style="enable-background:new 0 0 1440 320;" xml:space="preserve">
<style type="text/css">
	.st0{fill:#91b8ff;}
</style>
<path class="st0" d="M0,0l48,32c48,32,144,96,240,101.3C384,139,480,85,576,58.7C672,32,768,32,864,64s192,96,288,122.7
	c96,26.3,192,16.3,240,10.6l48-5.3v128h-48c-48,0-144,0-240,0s-192,0-288,0s-192,0-288,0s-192,0-288,0s-192,0-240,0H0V0z"/>
</svg>
